<svg width="230" height="272" viewBox="0 0 230 272" fill="none" xmlns="http://www.w3.org/2000/svg">
<path d="M105.52 0.83197C114.736 0.83197 124.048 1.69597 133.456 3.42397C142.864 5.15197 150.352 7.64798 155.92 10.912C157.648 11.68 158.704 12.544 159.088 13.504C159.664 14.272 160.048 15.712 160.24 17.824L163.408 50.08C163.408 50.656 162.928 51.04 161.968 51.232C161.008 51.232 160.432 50.944 160.24 50.368C156.016 35.584 148.144 24.736 136.624 17.824C125.296 10.72 111.184 7.16798 94.288 7.16798C79.696 7.16798 66.928 10.432 55.984 16.96C45.04 23.296 36.592 32.32 30.64 44.032C24.688 55.744 21.712 69.28 21.712 84.64C21.712 102.496 25.36 119.008 32.656 134.176C40.144 149.344 50.128 161.344 62.608 170.176C75.28 179.008 88.912 183.424 103.504 183.424C117.328 183.424 129.328 179.68 139.504 172.192C149.68 164.512 157.456 152.8 162.832 137.056C162.832 136.48 163.216 136.192 163.984 136.192C164.56 136.192 165.04 136.288 165.424 136.48C166 136.672 166.288 136.96 166.288 137.344L162.256 169.888C161.872 172.192 161.392 173.728 160.816 174.496C160.432 175.072 159.376 175.744 157.648 176.512C140.368 183.808 122.128 187.456 102.928 187.456C79.888 187.456 60.592 182.848 45.04 173.632C29.68 164.224 18.352 152.32 11.056 137.92C3.76 123.52 0.112 108.352 0.112 92.416C0.112 74.752 5.008 58.912 14.8 44.896C24.592 30.88 37.552 20.032 53.68 12.352C69.808 4.67198 87.088 0.83197 105.52 0.83197Z" fill="#116F68"/>
<path d="M168.408 85C177.624 85 186.936 85.864 196.344 87.592C205.752 89.32 213.24 91.816 218.808 95.08C220.536 95.848 221.592 96.712 221.976 97.672C222.552 98.44 222.936 99.88 223.128 101.992L226.296 134.248C226.296 134.824 225.816 135.208 224.856 135.4C223.896 135.4 223.32 135.112 223.128 134.536C218.904 119.752 211.032 108.904 199.512 101.992C188.184 94.888 174.072 91.336 157.176 91.336C142.584 91.336 129.816 94.6 118.872 101.128C107.928 107.464 99.48 116.488 93.528 128.2C87.576 139.912 84.6 153.448 84.6 168.808C84.6 186.664 88.248 203.176 95.544 218.344C103.032 233.512 113.016 245.512 125.496 254.344C138.168 263.176 151.8 267.592 166.392 267.592C180.216 267.592 192.216 263.848 202.392 256.36C212.568 248.68 220.344 236.968 225.72 221.224C225.72 220.648 226.104 220.36 226.872 220.36C227.448 220.36 227.928 220.456 228.312 220.648C228.888 220.84 229.176 221.128 229.176 221.512L225.144 254.056C224.76 256.36 224.28 257.896 223.704 258.664C223.32 259.24 222.264 259.912 220.536 260.68C203.256 267.976 185.016 271.624 165.816 271.624C142.776 271.624 123.48 267.016 107.928 257.8C92.568 248.392 81.24 236.488 73.944 222.088C66.648 207.688 63 192.52 63 176.584C63 158.92 67.896 143.08 77.688 129.064C87.48 115.048 100.44 104.2 116.568 96.52C132.696 88.84 149.976 85 168.408 85Z" fill="#116F68"/>
</svg>
