<?xml version="1.0" standalone="no"?>
<!DOCTYPE svg PUBLIC "-//W3C//DTD SVG 20010904//EN"
 "http://www.w3.org/TR/2001/REC-SVG-20010904/DTD/svg10.dtd">
<svg version="1.0" xmlns="http://www.w3.org/2000/svg"
 width="700.000000pt" height="700.000000pt" viewBox="0 0 700.000000 700.000000"
 preserveAspectRatio="xMidYMid meet">
<metadata>
Created by potrace 1.11, written by Peter Selinger 2001-2013
</metadata>
<g transform="translate(0.000000,700.000000) scale(0.100000,-0.100000)"
fill="#000000" stroke="none">
<path d="M3132 6079 c-315 -28 -636 -127 -899 -278 -445 -254 -757 -674 -839
-1128 -35 -197 -29 -465 16 -680 45 -218 161 -487 281 -658 178 -249 481 -482
769 -591 41 -15 77 -29 79 -30 2 -2 8 -44 13 -94 36 -363 194 -735 415 -981
289 -321 638 -503 1103 -576 143 -22 607 -25 735 -5 238 38 424 86 610 158
109 43 131 62 145 128 17 84 81 618 75 633 -3 9 -16 13 -31 11 -22 -3 -30 -14
-60 -91 -155 -402 -427 -663 -779 -748 -375 -90 -767 -3 -1101 244 -95 70
-267 246 -338 346 -165 231 -279 493 -336 773 -11 53 -20 98 -20 100 0 1 132
3 292 3 233 0 317 4 408 18 153 24 333 69 477 118 164 57 205 78 225 119 18
36 103 664 92 681 -3 5 -17 9 -32 9 -25 0 -29 -7 -55 -79 -15 -44 -51 -124
-78 -178 -209 -406 -546 -615 -994 -616 -162 0 -322 23 -343 51 -19 24 -10
445 12 557 37 191 105 372 197 523 68 109 244 291 347 357 279 179 592 250
952 216 546 -53 892 -300 1039 -743 19 -58 26 -68 46 -68 13 0 26 3 28 8 3 4
-10 156 -28 338 -26 261 -36 337 -50 358 -35 53 -240 137 -427 176 -194 40
-336 54 -563 54 -249 0 -364 -14 -582 -69 -554 -142 -1003 -486 -1228 -940
-36 -71 -76 -165 -89 -208 -30 -92 -66 -272 -66 -328 0 -21 -3 -39 -7 -39 -18
0 -159 119 -234 197 -148 154 -241 290 -340 498 -251 530 -262 1198 -26 1659
181 354 494 582 907 662 129 24 434 25 570 1 479 -86 778 -320 910 -712 24
-71 30 -80 53 -83 25 -3 27 -1 27 35 0 21 -14 172 -30 336 -22 222 -34 305
-47 327 -23 40 -170 112 -304 149 -260 72 -623 104 -897 80z"/>
</g>
</svg>
